# xmcd CD database file
#
# Track frame offsets:
#	150
#	11137
#	24759
#	36270
#	50857
#	67634
#	81319
#	97043
#	108182
#	124245
#	133809
#	146883
#
# Disc length: 2128 seconds
#
# Revision: 1
# Processed by: cddbd v1.5.2PL0 Copyright (c) Steve Scherf et al.
# Submitted via: CDex 1.70beta2
#
DISCID=a7084e0c
DTITLE=George Johnson - Country Songs
DYEAR=2005
DGENRE=Country
TTITLE0=Momma I Want To Be A Cowboy
TTITLE1=Take Me On The Trail Cowboy
TTITLE2=Raised On Country Music
TTITLE3=Don't Give Up On This Country
TTITLE4=She Loves My Cowboy Ways
TTITLE5=Give Me One More Romance
TTITLE6=Born To Be A Cowboy
TTITLE7=My Sweet Amaryllis
TTITLE8=Bareback Rider
TTITLE9=Texacanna Traveling Cowboy
TTITLE10=Sweet Country Girls
TTITLE11=Country Lady
EXTD=YEAR: 2005
EXTT0=
EXTT1=
EXTT2=
EXTT3=
EXTT4=
EXTT5=
EXTT6=
EXTT7=
EXTT8=
EXTT9=
EXTT10=
EXTT11=
PLAYORDER=
